<?xml version="1.0" encoding="UTF-8" standalone="no"?>
<svg
   width="900px"
   height="900px"
   viewBox="0 0 900 900"
   version="1.1"
   xml:space="preserve"
   id="SVGRoot"
   inkscape:version="1.3.2 (091e20ef0f, 2023-11-25, custom)"
   sodipodi:docname="Syhuu logo.svg"
   inkscape:export-filename="Syhuu potential logo.png"
   inkscape:export-xdpi="96"
   inkscape:export-ydpi="96"
   xmlns:inkscape="http://www.inkscape.org/namespaces/inkscape"
   xmlns:sodipodi="http://sodipodi.sourceforge.net/DTD/sodipodi-0.dtd"
   xmlns="http://www.w3.org/2000/svg"
   xmlns:svg="http://www.w3.org/2000/svg"><defs
   id="defs10" />
  <sodipodi:namedview
   pagecolor="#a9a9a9"
   bordercolor="#292929"
   borderopacity="1"
   inkscape:showpageshadow="2"
   inkscape:pageopacity="0.0"
   inkscape:pagecheckerboard="0"
   inkscape:deskcolor="#232323"
   id="namedview1"
   inkscape:zoom="0.40496381"
   inkscape:cx="509.92211"
   inkscape:cy="642.03268"
   inkscape:window-width="1362"
   inkscape:window-height="722"
   inkscape:window-x="0"
   inkscape:window-y="26"
   inkscape:window-maximized="1"
   inkscape:current-layer="SVGRoot" />
 <style
   type="text/css"
   id="style1">
g.prefab path {
  vector-effect:non-scaling-stroke;
  -inkscape-stroke:hairline;
  fill: none;
  fill-opacity: 1;
  stroke-opacity: 1;
  stroke: #00349c;
}
 </style>
 <g
   inkscape:label="Trellis"
   style="display:none;fill:#ffffff;stroke:#000000;stroke-width:2"
   class="prefab"
   id="g10">
  <path
   d="M 150,147.99996 H 750 V 747.99981 H 150 Z"
   id="path1" />
  <path
   d="m 150,147.99996 h 99.99975 V 747.99981 H 150 Z"
   id="path2" />
  <path
   d="M 350.00025,147.99996 H 450 v 599.99985 h -99.99975 z"
   id="path3" />
  <path
   d="M 549.99975,147.99996 H 649.9995 V 747.99981 H 549.99975 Z"
   id="path4" />
  <path
   d="M 125.00025,772.99928 774.9975,123.00004"
   id="path5" />
  <path
   d="M 324.99975,772.99928 774.9975,322.99984"
   id="path6" />
  <path
   d="m 125.00025,572.99904 450,-449.999"
   id="path7" />
  <path
   d="M 774.9975,772.99928 125.00025,123.00004"
   id="path8" />
  <path
   d="m 575.00025,772.99928 -450,-449.99944"
   id="path9" />
  <path
   d="M 774.9975,572.99904 324.99975,123.00004"
   id="path10" />
 </g>
<path
   style="fill:#6b00ff;fill-opacity:1;stroke-width:2.93333;stroke-linecap:square"
   d="M 156.57493,320.25767 303.28806,461.83941 156.57493,608.55229 Z"
   id="path11" /><path
   style="fill:#f47d9b;fill-opacity:1;stroke-width:2.93333;stroke-linecap:square"
   d="M 450.00007,314.43038 303.28806,461.83941 450.00007,608.55229 Z"
   id="path12"
   sodipodi:nodetypes="cccc" /><path
   style="fill:#f47d9b;fill-opacity:1;stroke-width:2.93333;stroke-linecap:square"
   d="M 450.00007,900 303.28806,755.26421 449.99842,608.55197 Z"
   id="path14" /><path
   style="fill:#6b00ff;fill-opacity:1;stroke-width:2.93333;stroke-linecap:square"
   d="M 303.28806,461.83941 156.57493,608.55229 303.28806,755.26421 V 461.83941 L 156.57493,608.55229 303.28806,755.26421 Z"
   id="path15" /><path
   style="fill:#f47d9b;fill-opacity:1;stroke-width:2.93333;stroke-linecap:square"
   d="M 450.00007,608.55229 303.28806,461.83941 v 293.4248 z"
   id="path16" /><path
   style="fill:#c3647c;fill-opacity:1;stroke-width:2.93333;stroke-linecap:square"
   d="M 450.00007,314.43038 596.71045,461.83941 450.00007,608.55229 Z"
   id="path18" /><path
   style="fill:#f47d9b;fill-opacity:1;stroke-width:2.93333;stroke-linecap:square"
   d="M 449.99842,608.55197 596.71045,755.26421 V 461.83941 L 450.00007,608.55229"
   id="path19" /><path
   style="fill:#f47d9b;fill-opacity:1;stroke-width:2.93333;stroke-linecap:square"
   d="M 450.00007,900 596.71045,755.26421 449.99842,608.55197 449.99988,900"
   id="path20" /><path
   style="fill:#ffcd00;fill-opacity:1;stroke-width:2.93333;stroke-linecap:square"
   d="M 596.71045,461.83941 743.42412,608.55229 596.71045,755.26421 v -293.4248"
   id="path21" /><path
   style="fill:#ffcd00;fill-opacity:1;stroke-width:2.93333;stroke-linecap:square"
   d="M 596.71045,461.83941 743.42412,314.43038 V 608.55229 L 596.71045,461.83941"
   id="path22" /><path
   style="fill:#5600cc;fill-opacity:1;stroke-width:2.93333;stroke-linecap:square"
   d="M 303.28806,461.83941 450.00007,314.43038 303.28806,168.41525 Z"
   id="path25" /><path
   style="fill:#6b00ff;fill-opacity:1;stroke-width:2.93333;stroke-linecap:square"
   d="M 303.28806,168.41525 156.57493,320.25767 v 0 L 303.28806,461.83941 V 168.41525"
   id="path26"
   sodipodi:nodetypes="ccccc" /><path
   style="fill:#ffcd00;fill-opacity:1;stroke-width:2.93333;stroke-linecap:square"
   d="m 596.71045,461.83941 10e-4,-293.42416 -146.71184,146.01513 146.71037,147.40903"
   id="path27" /><path
   style="fill:#cca400;fill-opacity:1;stroke-width:2.93333;stroke-linecap:square"
   d="m 596.71191,168.41525 146.71221,146.01513 v 0 L 596.71045,461.83941 Z"
   id="path28"
   sodipodi:nodetypes="ccccc" /><path
   style="fill:#800000;stroke-width:2.93333;stroke-linecap:square"
   d="M 450.00007,314.43038 V 168.41525 H 596.7121 L 450.00007,314.43038"
   id="path31" /><path
   style="fill:#ff0000;stroke-width:2.93333;stroke-linecap:square"
   d="M 303.28806,168.41525 H 450.00007 V 314.43038 L 303.28806,168.41525"
   id="path32" /><path
   style="fill:#ff0000;stroke-width:2.93333;stroke-linecap:square"
   d="M 303.28806,170.65224 H 450.00007 V 24.637101 L 303.28806,170.65224"
   id="path54" /><path
   style="fill:#800000;stroke-width:2.93333;stroke-linecap:square"
   d="M 596.71247,170.65224 H 450.00044 V 24.637101 L 596.71247,170.65224"
   id="path55" /><path
   style="display:inline;fill:none;fill-opacity:1;stroke:#808080;stroke-width:35.211;stroke-linecap:square;stroke-dasharray:none;stroke-opacity:1"
   d="M 156.57493,320.25767 450.00007,608.55229 596.71045,461.83941 303.28806,168.41525 452.93469,24.637101 743.42412,314.43038"
   id="path58"
   sodipodi:nodetypes="cccccc" /><path
   style="display:none;fill:none;fill-opacity:1;stroke:#000000;stroke-width:24;stroke-linecap:square;stroke-dasharray:none;stroke-opacity:1"
   d="M 249.99975,447.99988 450,646.6523 649.9995,447.99988 V 247.52471 L 450,447.99988 249.99975,251.49662 452.00025,49.99996"
   id="path59" /><g
   inkscape:groupmode="layer"
   id="layer1"
   inkscape:label="Layer 1"
   style="display:none"><path
     style="fill:#ff0000;stroke-width:1.99937;stroke-linecap:square"
     d="m 249.99975,447.99988 100.0005,99.99968 -100.0005,98.65274 z"
     id="path13"
     sodipodi:nodetypes="cccc" /><path
     style="fill:#ff0000;stroke-width:1.99937;stroke-linecap:square"
     d="M 249.99975,447.99988 150,347.99954 V 147.99996 l 99.99975,103.49666 v 196.50326"
     id="path23" /><path
     style="fill:#ff0000;stroke-width:1.99937;stroke-linecap:square"
     d="M 649.9995,447.99988 750,347.99954 V 147.99996 l -100.0005,99.52475 z"
     id="path24" /><path
     style="fill:#ff0000;stroke-width:1.99937;stroke-linecap:square"
     d="M 249.99975,251.49662 150,147.99996 h 200.00025 l -100.0005,103.49666"
     id="path29"
     sodipodi:nodetypes="cccc" /><path
     style="fill:#ff0000;stroke-width:1.99937;stroke-linecap:square"
     d="M 649.9995,247.52471 750,147.99996 H 549.99975 Z"
     id="path30"
     sodipodi:nodetypes="cccc" /><path
     style="fill:#ff0000;stroke-width:1.99937;stroke-linecap:square"
     d="m 150,347.99954 v 200.00002 l 99.99975,-99.99968 z"
     id="path33" /><path
     style="fill:#ff0000;stroke-width:1.99937;stroke-linecap:square"
     d="M 552.00025,49.99996 H 652 v 99.52475 L 552.00025,49.99996"
     id="path48" /><path
     style="fill:#ff0000;stroke-width:1.99937;stroke-linecap:square"
     d="M 648.00025,49.99996 H 748 v 99.52475 L 648.00025,49.99996"
     id="path49" /><path
     style="fill:#ff0000;stroke-width:1.99937;stroke-linecap:square"
     d="M 250.00025,49.99996 H 350 v 99.52475 L 250.00025,49.99996"
     id="path50" /><path
     style="fill:#ff0000;stroke-width:1.99937;stroke-linecap:square"
     d="M 250,149.52471 H 150.00025 V 49.99996 L 250,149.52471"
     id="path52" /><path
     style="fill:#ff0000;stroke-width:1.99937;stroke-linecap:square"
     d="M 150,747.99981 V 547.99956 l 99.99975,-99.99968 V 646.6523 Z"
     id="path34" /><path
     style="fill:#ff0000;stroke-width:1.99937;stroke-linecap:square"
     d="m 350.00025,547.99956 -100.0005,98.65274 v 101.34751 h 100.0005 V 547.99956"
     id="path35" /><path
     style="fill:#ff0000;stroke-width:1.99937;stroke-linecap:square"
     d="M 249.99975,747.99981 H 150 L 249.99975,646.6523 Z"
     id="path36" /><path
     style="fill:#ff0000;stroke-width:1.99937;stroke-linecap:square"
     d="M 350.00025,547.99956 450,646.6523 350.00025,747.99981 Z"
     id="path37" /><path
     style="fill:#ff0000;stroke-width:1.99937;stroke-linecap:square"
     d="M 750,347.99954 649.9995,447.99988 750,547.99956 Z"
     id="path38" /><path
     style="fill:#ff0000;stroke-width:1.99937;stroke-linecap:square"
     d="M 774.9975,572.99904 649.9995,447.99988 750,547.99956 V 747.99981 L 649.9995,646.6523 V 447.99988"
     id="path39" /><path
     style="fill:#ff0000;stroke-width:1.99937;stroke-linecap:square"
     d="M 350.00025,747.99981 H 450 V 646.6523 Z"
     id="path40" /><path
     style="fill:#ff0000;stroke-width:1.99937;stroke-linecap:square"
     d="m 450,747.99981 h 99.99975 L 450,646.6523 v 101.34751"
     id="path41" /><path
     style="fill:#ff0000;stroke-width:1.99937;stroke-linecap:square"
     d="M 649.9995,646.6523 549.99862,547.99956 649.9995,447.99988 Z"
     id="path42" /><path
     style="fill:#ff0000;stroke-width:1.99937;stroke-linecap:square"
     d="M 549.99862,547.99956 450,646.6523 549.99975,747.99981 Z"
     id="path43" /><path
     style="fill:#ff0000;stroke-width:1.99937;stroke-linecap:square"
     d="M 549.99862,547.99956 649.9995,646.6523 v 101.34751 h -99.99975 z"
     id="path44" /><path
     style="fill:#ff0000;stroke-width:1.99937;stroke-linecap:square"
     d="M 750,747.99981 H 649.9995 V 646.6523 Z"
     id="path45" /><path
     style="fill:#ff0000;stroke-width:1.99937;stroke-linecap:square"
     d="m 450,49.99996 h -99.99975 v 99.52475 L 450,49.99996"
     id="path46" /><path
     style="fill:#ff0000;stroke-width:1.99937;stroke-linecap:square"
     d="M 452.00025,49.99996 H 552 v 99.52475 L 452.00025,49.99996"
     id="path47" /><path
     style="fill:#ff0000;stroke-width:1.99937;stroke-linecap:square"
     d="M 150.00025,49.99996 H 250 v 99.52475 L 150.00025,49.99996"
     id="path51" /><path
     style="fill:#ff0000;stroke-width:1.99937;stroke-linecap:square"
     d="M 350,149.52471 H 250.00025 V 49.99996 L 350,149.52471"
     id="path53" /><path
     style="fill:#ff0000;stroke-width:1.99937;stroke-linecap:square"
     d="M 652,149.52471 H 552.00025 V 49.99996 L 652,149.52471"
     id="path56" /><path
     style="fill:#ff0000;stroke-width:1.99937;stroke-linecap:square"
     d="M 748,149.52471 H 648.00025 V 49.99996 L 748,149.52471"
     id="path57" /></g></svg>
